<?xml version="1.0" standalone="no"?>
<!DOCTYPE svg PUBLIC "-//W3C//DTD SVG 20010904//EN"
 "http://www.w3.org/TR/2001/REC-SVG-20010904/DTD/svg10.dtd">
<svg version="1.0" xmlns="http://www.w3.org/2000/svg"
 width="1080.000000pt" height="1080.000000pt" viewBox="0 0 1080.000000 1080.000000"
 preserveAspectRatio="xMidYMid meet">

<g transform="translate(0.000000,1080.000000) scale(0.100000,-0.100000)"
fill="#000000" stroke="none">
<path d="M5553 8543 c-8 -19 -8 -66 -3 -279 l3 -132 -48 -73 c-27 -41 -53 -78
-59 -84 -13 -12 -79 -102 -118 -160 -26 -39 -55 -93 -99 -185 -12 -25 -29 -56
-39 -70 -19 -29 -54 -124 -82 -225 -16 -58 -19 -95 -16 -215 3 -143 4 -146 37
-208 20 -36 46 -69 60 -77 20 -10 81 -12 265 -10 221 2 241 4 253 21 28 37 -2
116 -81 218 -56 72 -59 93 -54 318 4 164 5 176 32 233 15 33 33 78 40 100 7
22 27 62 44 89 18 28 32 57 32 65 0 8 11 33 24 55 13 23 36 81 52 130 26 86
27 92 15 164 -22 130 -45 173 -148 278 -24 24 -43 48 -43 54 0 18 -60 12 -67
-7z"/>
<path d="M3380 7711 c-14 -4 -32 -19 -40 -34 -14 -25 -13 -30 5 -64 17 -32 31
-41 94 -65 85 -31 167 -102 206 -178 12 -25 31 -61 40 -80 20 -36 33 -149 34
-283 1 -42 10 -119 21 -170 11 -50 24 -123 30 -160 10 -64 45 -149 108 -262
47 -85 62 -102 118 -145 47 -37 62 -43 118 -47 l65 -6 136 134 c74 74 148 140
165 148 28 14 50 54 50 91 0 33 -34 60 -92 74 -64 15 -95 35 -183 123 -84 83
-111 120 -125 171 -6 24 -20 60 -30 80 -11 21 -24 69 -30 107 -6 39 -20 88
-31 109 -11 21 -25 64 -30 95 -27 149 -215 338 -359 362 -63 10 -233 10 -270
0z"/>
<path d="M7506 7529 c-14 -17 -26 -34 -26 -37 0 -4 -11 -46 -24 -93 -28 -105
-77 -169 -177 -229 -55 -34 -80 -42 -165 -55 -54 -8 -121 -21 -147 -29 -26 -9
-97 -22 -156 -30 -124 -18 -238 -55 -295 -97 -22 -16 -45 -29 -51 -29 -6 0
-33 -15 -61 -32 -111 -72 -163 -133 -198 -233 -33 -92 -5 -138 158 -259 21
-16 76 -64 122 -108 46 -43 89 -78 97 -78 33 0 63 54 107 195 27 87 129 184
225 214 22 7 58 21 80 31 22 11 72 24 110 31 91 15 252 57 287 75 112 58 186
133 240 242 l43 87 -2 130 c-2 119 -5 137 -33 215 -17 47 -39 93 -47 103 -24
26 -58 21 -87 -14z"/>
<path d="M6216 7498 c-9 -12 -16 -38 -16 -58 0 -19 -10 -51 -21 -70 -35 -57
-149 -160 -208 -189 -48 -22 -63 -37 -107 -103 -45 -68 -52 -85 -56 -140 -8
-108 18 -155 102 -183 26 -9 62 -27 80 -40 39 -29 114 -34 145 -11 18 13 20
27 20 138 0 116 2 126 28 170 15 26 33 51 40 55 18 11 102 122 120 158 16 34
28 146 20 189 -8 39 -76 106 -107 106 -14 0 -32 -10 -40 -22z"/>
<path d="M4625 7490 c-17 -18 -17 -24 0 -117 16 -86 16 -110 5 -215 -14 -129
-9 -253 12 -291 7 -13 24 -44 37 -68 52 -98 115 -137 189 -120 76 16 182 91
182 126 0 9 -27 45 -60 80 -34 34 -65 77 -70 96 -6 19 -10 77 -10 131 0 78 -5
112 -27 178 -23 70 -35 89 -93 150 -61 64 -71 70 -107 70 -27 0 -46 -6 -58
-20z"/>
<path d="M5100 6645 c-97 -29 -187 -64 -234 -89 -27 -14 -54 -26 -61 -26 -6 0
-29 -13 -51 -30 -21 -16 -44 -30 -50 -30 -19 0 -139 -94 -254 -199 -94 -85
-259 -339 -286 -439 -8 -29 -21 -63 -29 -76 -9 -13 -24 -66 -35 -117 -10 -52
-26 -111 -34 -131 -22 -52 -22 -281 0 -363 8 -33 24 -96 34 -140 18 -76 78
-256 95 -286 141 -242 389 -502 555 -581 36 -17 76 -39 90 -48 14 -10 45 -21
70 -25 24 -4 62 -18 83 -32 31 -19 59 -26 145 -33 59 -5 134 -15 167 -21 79
-15 85 -15 195 4 52 8 123 18 158 21 36 3 82 16 110 30 26 13 66 27 88 31 21
4 57 19 79 35 22 15 51 31 65 35 14 4 34 15 45 25 11 10 31 23 44 30 53 27
185 135 276 225 61 61 195 241 195 262 0 5 16 39 35 77 19 39 35 76 35 84 0 7
13 44 29 80 35 83 46 171 46 397 0 201 -15 350 -39 387 -9 14 -25 55 -35 90
-26 91 -110 246 -187 344 -78 100 -207 227 -268 265 -24 16 -47 33 -50 38 -12
19 -112 80 -156 96 -24 9 -51 22 -60 30 -9 8 -51 24 -93 34 -42 11 -91 28
-109 38 -29 16 -64 18 -298 20 -202 2 -276 -1 -310 -12z m544 -334 c55 -12
110 -31 123 -41 13 -10 41 -24 61 -31 20 -6 53 -23 72 -38 19 -15 46 -34 60
-41 44 -23 132 -103 191 -175 100 -120 107 -130 125 -176 10 -24 25 -54 35
-67 10 -13 23 -49 29 -80 6 -31 21 -84 33 -117 18 -51 22 -87 25 -240 l3 -180
-39 -115 c-44 -126 -90 -224 -128 -269 -13 -16 -30 -40 -37 -54 -16 -30 -164
-170 -232 -219 -67 -48 -183 -108 -209 -108 -12 0 -40 -9 -63 -20 -86 -39
-158 -50 -322 -50 -104 0 -173 5 -206 14 -94 27 -210 69 -235 86 -14 10 -45
27 -69 40 -71 36 -198 148 -259 230 -68 89 -142 209 -142 230 0 8 -11 34 -24
56 -43 75 -51 134 -50 344 2 212 5 230 69 403 57 154 137 275 254 383 130 122
280 200 443 233 57 11 112 23 123 25 55 12 276 -2 369 -23z"/>
<path d="M3445 6354 c-120 -59 -119 -74 9 -154 92 -57 145 -112 177 -184 11
-25 30 -58 43 -73 13 -15 28 -38 35 -51 7 -12 40 -43 73 -67 53 -38 69 -45
109 -45 52 0 102 32 115 73 4 12 19 40 35 62 58 83 52 135 -18 161 -53 20
-130 75 -152 108 -53 78 -117 138 -183 171 -95 47 -147 47 -243 -1z"/>
<path d="M6910 6294 c-30 -14 -68 -36 -85 -48 -16 -13 -48 -32 -70 -44 -64
-32 -90 -66 -90 -117 0 -31 6 -50 22 -67 25 -26 83 -151 83 -178 0 -29 39 -70
67 -70 38 0 91 37 112 79 58 112 145 158 321 171 63 5 134 13 158 18 65 15
192 131 192 176 0 9 -9 25 -20 36 -18 18 -32 19 -152 17 -125 -2 -137 0 -199
26 -58 24 -78 27 -175 27 -96 0 -116 -3 -164 -26z"/>
<path d="M7065 5726 c-122 -12 -177 -30 -189 -61 -10 -28 -7 -80 8 -100 28
-42 39 -125 34 -273 -5 -132 -3 -147 13 -163 28 -28 75 -23 149 13 61 29 73
32 201 36 199 6 228 -3 441 -138 42 -26 87 -51 100 -55 13 -4 51 -21 85 -37
62 -29 65 -30 195 -26 144 5 129 0 308 93 l45 24 0 78 0 78 -30 6 c-16 4 -75
7 -130 8 -106 1 -164 13 -205 40 -14 10 -47 25 -73 35 -37 14 -81 50 -195 161
-83 80 -167 152 -192 165 -25 12 -52 28 -60 35 -8 7 -42 22 -75 33 -33 11 -85
30 -115 41 -63 23 -128 25 -315 7z"/>
<path d="M2613 5691 c-88 -29 -112 -46 -149 -101 -12 -19 -45 -59 -73 -88 -48
-51 -51 -56 -51 -107 0 -54 0 -54 38 -64 55 -16 86 -13 115 9 22 18 40 20 146
20 89 0 132 -4 159 -16 20 -9 60 -23 87 -31 28 -8 70 -25 95 -38 25 -12 58
-25 73 -29 15 -4 64 -32 109 -62 44 -31 97 -62 117 -69 20 -7 53 -24 74 -38
46 -31 128 -42 266 -34 77 4 112 11 176 37 44 17 85 38 91 46 8 10 10 59 6
152 -4 133 -4 139 22 189 28 57 36 159 14 181 -23 23 -73 12 -161 -38 -108
-60 -167 -73 -318 -68 -100 3 -121 7 -168 30 -29 15 -78 35 -110 43 -31 9 -64
24 -73 32 -25 22 -262 73 -338 72 -43 0 -93 -10 -147 -28z"/>
<path d="M3867 4854 c-35 -27 -62 -38 -119 -49 -40 -7 -89 -18 -108 -24 -19
-5 -68 -14 -108 -19 -40 -6 -84 -17 -97 -26 -29 -19 -108 -136 -130 -194 -16
-38 -16 -44 -2 -66 31 -47 81 -42 140 13 27 24 34 26 125 25 57 0 129 -8 174
-19 74 -18 81 -18 160 -1 133 28 154 35 173 56 16 18 17 25 5 63 -7 23 -25 57
-41 75 -16 18 -30 45 -31 60 0 15 -2 46 -3 69 0 22 -7 48 -14 57 -23 28 -73
20 -124 -20z"/>
<path d="M6852 4823 c-37 -20 -42 -28 -101 -150 -70 -147 -64 -203 23 -203 23
0 55 4 71 9 21 6 60 2 124 -10 85 -17 99 -23 140 -62 26 -23 62 -61 81 -85 19
-23 59 -59 88 -79 48 -34 60 -37 137 -41 114 -6 153 2 161 33 9 38 -25 86 -89
125 -51 32 -103 89 -119 131 -10 25 -93 145 -139 199 -42 49 -124 111 -173
130 -16 6 -61 13 -100 16 -58 4 -77 2 -104 -13z"/>
<path d="M4111 4456 c-17 -20 -71 -196 -71 -232 0 -18 -12 -47 -28 -70 -44
-61 -163 -168 -242 -218 -25 -16 -63 -41 -85 -56 -60 -40 -172 -100 -186 -100
-17 0 -188 -104 -225 -137 -61 -55 -85 -100 -101 -186 -32 -180 13 -327 100
-327 48 0 69 28 78 101 8 70 37 118 115 196 81 79 124 100 234 113 124 16 368
76 400 99 15 10 48 30 76 44 63 32 223 198 224 232 0 6 15 29 34 53 19 23 39
65 46 92 16 67 0 95 -110 191 -46 41 -87 85 -90 96 -6 27 -115 123 -139 123
-10 0 -24 -6 -30 -14z"/>
<path d="M6509 4298 c-70 -62 -178 -145 -252 -194 -69 -45 -98 -122 -58 -158
10 -9 40 -21 67 -25 85 -15 190 -70 331 -176 50 -37 113 -134 130 -198 7 -27
22 -64 33 -83 12 -18 26 -62 30 -97 11 -71 70 -201 131 -282 29 -40 54 -59
125 -95 l89 -45 150 0 c167 0 211 10 221 52 14 54 -29 94 -116 108 -25 4 -57
13 -71 21 -39 19 -169 150 -169 168 0 9 -13 40 -29 69 -16 28 -33 75 -37 102
-3 28 -15 71 -25 97 -12 30 -23 99 -29 185 -22 273 -117 457 -296 573 -48 32
-70 40 -107 40 -43 0 -52 -5 -118 -62z"/>
<path d="M4651 3966 c-9 -10 -16 -56 -21 -119 -7 -112 -14 -131 -74 -198 -122
-136 -174 -212 -201 -294 -21 -61 -16 -143 13 -207 17 -38 27 -48 67 -63 45
-18 47 -18 65 1 13 12 23 43 29 87 12 86 51 147 127 202 30 22 73 55 96 73 22
17 43 32 47 32 3 0 30 22 59 48 43 39 59 64 84 128 17 43 33 100 35 125 4 39
1 50 -23 78 -15 18 -48 42 -72 52 -24 11 -57 29 -74 40 -40 29 -138 38 -157
15z"/>
<path d="M5920 3905 c-77 -18 -87 -23 -110 -60 -30 -49 -26 -75 20 -120 25
-25 42 -52 46 -74 4 -20 18 -65 31 -101 14 -36 29 -94 34 -129 21 -145 163
-290 285 -291 37 0 43 3 54 30 10 25 10 34 -4 53 -54 75 -51 59 -48 255 3 168
1 186 -17 215 -10 18 -28 55 -39 83 -24 63 -66 120 -103 140 -33 17 -74 17
-149 -1z"/>
<path d="M5163 3826 c-17 -8 -34 -23 -37 -33 -10 -30 17 -104 56 -155 20 -26
39 -62 43 -80 4 -18 19 -55 33 -83 23 -45 26 -62 26 -165 1 -110 0 -118 -31
-181 -18 -36 -33 -69 -33 -74 0 -5 -13 -38 -29 -74 -16 -36 -44 -113 -61 -171
-41 -134 -39 -209 9 -315 28 -61 106 -166 149 -202 8 -7 20 -23 26 -35 10 -20
20 -23 84 -26 60 -2 73 0 79 14 7 19 -21 115 -47 161 -14 24 -19 57 -21 150
-2 106 1 126 25 201 24 71 42 99 122 200 135 170 131 164 165 244 46 112 49
124 49 249 0 120 -9 153 -75 279 -22 43 -77 63 -180 66 -52 1 -107 9 -127 17
-54 22 -186 30 -225 13z"/>
</g>
</svg>
